# xmcd
#
# Track frame offsets:
#	182
#	9952
#	22365
#	31780
#	42717
#	55747
#	66770
#	77297
#	87055
#	98235
#	109665
#	119190
#	129830
#	139322
#	153170
#
# Disc length: 2310 seconds
#
# Revision: 3
# Processed by: cddbd v1.5.1PL0 Copyright (c) Steve Scherf et al.
# Submitted via: audiograbber 1.83.01
#
DISCID=bd09040f
DTITLE=Various Artist - Prom Night - Greatest Hits of the 50's and 60's Disk 4
DYEAR=1900
DGENRE=Oldies
TTITLE0=Buddy Holly and The Crickets - Oh, Boy!
TTITLE1=Duprees - You Belong to Me
TTITLE2=Ricky Nelson - Be-Bop Baby
TTITLE3=Little Eva - The Loco-Motion
TTITLE4=Ben E. King - Stand By Me
TTITLE5=Percy Faith and His Orchestra - Theme from "A Summer Place"
TTITLE6=Fats Domino - I Want to Walk You Home
TTITLE7=The Tempos - See You in September
TTITLE8=The Lettermen - When I Fall in Love
TTITLE9=Ruby and the Romantics - Our Day Will Come
TTITLE10=The Beach Boys - Be True to Your School
TTITLE11=Jimmy Clanton - Venus in Blue Jeans
TTITLE12=Bobby Darin - Queen of the Hop
TTITLE13=The Four Freshmen - Graduation Day
TTITLE14=The Isley Brothers - Shout
EXTD=Ripped by teacherdan
EXTT0=
EXTT1=
EXTT2=
EXTT3=
EXTT4=
EXTT5=
EXTT6=
EXTT7=
EXTT8=
EXTT9=
EXTT10=
EXTT11=
EXTT12=
EXTT13=
EXTT14=
PLAYORDER=
